<?xml version="1.0" standalone="no"?>
<!DOCTYPE svg PUBLIC "-//W3C//DTD SVG 20010904//EN"
 "http://www.w3.org/TR/2001/REC-SVG-20010904/DTD/svg10.dtd">
<svg version="1.0" xmlns="http://www.w3.org/2000/svg"
 width="500.000000pt" height="500.000000pt" viewBox="0 0 500.000000 500.000000"
 preserveAspectRatio="xMidYMid meet">
<metadata>
Created by potrace 1.11, written by Peter Selinger 2001-2013
</metadata>
<g transform="translate(0.000000,500.000000) scale(0.100000,-0.100000)"
fill="#000000" stroke="none">
<path d="M2280 4919 c-317 -26 -603 -105 -895 -248 -237 -116 -431 -255 -615
-441 -351 -352 -565 -769 -658 -1280 -24 -135 -26 -166 -26 -435 -1 -262 2
-303 23 -420 71 -394 232 -776 424 -1011 34 -42 67 -85 74 -97 44 -79 258
-289 414 -406 321 -242 745 -410 1169 -463 151 -19 486 -16 640 5 721 101
1329 485 1705 1078 399 629 483 1465 220 2181 -206 558 -618 1020 -1145 1283
-410 205 -865 291 -1330 254z m485 -204 c66 -8 156 -22 200 -30 134 -27 268
-75 207 -75 -38 0 -136 -29 -197 -59 -65 -32 -183 -142 -208 -195 -26 -54 -40
-138 -40 -232 0 -74 5 -106 27 -165 15 -41 31 -82 37 -91 5 -10 9 -28 9 -40
l0 -23 -307 3 c-170 1 -349 7 -400 12 -50 6 -113 10 -140 10 -26 0 -61 7 -77
15 -40 21 -72 19 -98 -7 -16 -16 -45 -27 -91 -35 -37 -6 -79 -19 -93 -28 -26
-17 -74 -106 -74 -136 0 -9 -11 -24 -24 -32 l-24 -16 2 -193 c2 -163 6 -205
24 -273 21 -78 22 -96 20 -465 l-3 -385 -22 -10 c-32 -14 -31 -78 2 -136 l25
-44 0 -408 c0 -387 1 -411 20 -455 41 -96 103 -112 430 -112 142 0 230 -4 236
-10 15 -15 85 -18 114 -4 15 7 110 14 245 17 211 6 257 12 432 54 13 3 29 -3
43 -17 43 -43 112 -9 162 79 35 62 41 69 78 92 14 9 66 54 116 101 64 61 105
90 140 102 73 26 77 29 102 76 23 43 23 45 6 76 l-18 33 42 88 c76 161 126
340 138 495 3 46 13 97 22 113 26 52 20 299 -10 395 -25 79 -205 431 -263 515
-63 91 -188 222 -257 272 -52 36 -49 56 15 89 28 15 65 34 82 42 49 26 168
136 193 180 46 81 70 252 48 337 -31 117 -84 203 -160 263 -41 32 -27 28 73
-21 192 -95 373 -230 551 -413 99 -102 210 -238 210 -257 0 -8 59 -96 88 -131
39 -48 147 -282 191 -411 73 -220 120 -494 120 -700 1 -348 -43 -605 -150
-880 -196 -504 -544 -892 -1021 -1139 -275 -143 -532 -213 -863 -237 -363 -25
-632 9 -970 124 -182 61 -401 177 -528 279 -37 29 -92 71 -122 92 -103 73
-346 339 -397 434 -12 23 -10 27 28 61 54 48 132 75 214 75 72 0 164 -26 196
-55 11 -11 25 -19 31 -19 9 0 76 -97 87 -125 6 -17 85 66 79 84 -8 21 -77 115
-104 139 -40 38 -164 91 -238 103 -122 18 -219 -7 -333 -89 l-47 -33 -21 33
c-89 146 -192 427 -234 644 -31 160 -44 300 -28 290 7 -4 12 -15 12 -24 1 -29
83 -125 146 -169 58 -41 133 -70 244 -93 50 -11 62 -10 135 15 142 48 206 93
287 203 53 71 65 103 73 193 7 79 -8 214 -26 225 -5 3 -9 12 -9 20 0 23 -69
125 -111 165 -90 85 -308 161 -373 131 -11 -5 -41 -15 -66 -22 -114 -30 -255
-136 -289 -218 -16 -39 -35 -42 -27 -4 2 15 7 50 11 77 19 156 98 452 145 545
15 30 25 37 75 48 31 7 77 24 102 38 25 13 52 24 59 24 23 0 133 120 164 180
31 57 50 207 39 300 -4 35 -4 71 1 80 26 48 293 271 375 313 29 15 31 14 65
-20 86 -84 198 -123 357 -123 l103 0 82 51 c95 58 119 81 183 167 59 81 65 98
65 182 l0 68 68 11 c97 16 119 18 302 19 97 1 216 -4 285 -13z m-813 -86 c-5
-46 -49 -124 -91 -161 -117 -103 -272 -112 -403 -24 -16 10 -28 21 -28 25 0
18 238 120 376 161 60 17 114 33 119 35 22 7 30 -4 27 -36z m1329 -184 c121
-42 175 -96 228 -228 28 -70 6 -204 -44 -272 -70 -95 -137 -134 -245 -142 -68
-5 -83 -3 -147 24 -84 36 -146 89 -180 158 -22 42 -26 64 -26 140 0 79 3 97
28 148 43 86 87 125 190 168 51 22 140 23 196 4z m-2561 -602 c-16 -80 -60
-150 -121 -194 -23 -16 -29 -17 -29 -6 0 20 142 237 155 237 1 0 -1 -17 -5
-37z m142 -1021 c72 -35 134 -100 161 -170 11 -28 17 -71 17 -125 0 -69 -4
-92 -26 -134 -32 -66 -76 -113 -138 -149 -42 -23 -64 -29 -138 -32 -80 -4 -93
-2 -145 23 -77 38 -124 83 -158 152 -26 51 -30 67 -29 148 0 72 4 98 22 131
89 172 270 237 434 156z"/>
<path d="M1331 1141 c0 -13 -9 -30 -18 -37 -10 -7 -13 -14 -7 -14 19 0 36 28
31 52 l-4 23 -2 -24z"/>
<path d="M1240 1054 c0 -8 5 -12 10 -9 6 4 8 11 5 16 -9 14 -15 11 -15 -7z"/>
</g>
</svg>
